<svg xmlns="http://www.w3.org/2000/svg" version="1.1" xmlns:xlink="http://www.w3.org/1999/xlink" width="1500" height="1500" viewBox="0 0 1500 1500"><rect width="1500" height="1500" x="0" y="0" id="background" stroke="transparent" fill="#ffffff"></rect><svg xml:space="preserve" width="1000" height="1000" data-version="2" data-id="lg_3syIYcDJN5JxW2ZK2p" viewBox="0 0 567 94" x="250" y="250"><rect width="100%" height="100%" fill="transparent"></rect><circle r="59.32" fill="#6b7280" transform="translate(51.52 47)scale(.7754)"></circle><path fill="#6b7280" d="m118.025 63.11 1.62-8.96h3.3q1.07 0 1.82-.25.76-.25.98-1.43l2.69-15.4h-4.37l1.63-8.96h15.01l-4.54 25.76q-.78 4.54-3.33 6.89-2.55 2.35-6.53 2.35Zm5.48-32.48-23.68-2.52h24.13Zm-1 5.38-23.75-2.52h24.14Zm3.47 5.37-23.75-2.52h24.2Zm-.95 5.38-23.75-2.52h24.19Zm-.96 5.37-23.74-2.52h24.19Zm-6.77 5.38-23.75-2.52h24.2Zm-.95 5.43-23.75-2.52h24.19Z"></path><rect width="48.11" height="35" x="-24.05" y="-17.5" fill="none" rx="0" ry="0" transform="translate(117.15 46.11)"></rect><path fill="#6b7280" d="M163.105 63.78q-5.77 0-8.07-1.71-2.29-1.7-2.29-5.96 0-1.29.16-2.74.17-1.46.45-3.2l2.97-16.68h9.41l-3.81 21.78h2.8q1.4 0 2.04-.34.65-.33.87-1.79l3.53-19.65h9.41l-2.91 16.68q-.9 5.1-2.41 8.1-1.51 2.99-4.37 4.25-2.86 1.26-7.78 1.26m-8.96-27.77-23.75-2.52h24.14Zm-.96 5.37-23.74-2.52h24.19Zm-.95 5.38-23.74-2.52h24.19Zm-.95 5.37-23.74-2.52h24.19Zm-.17 5.38-23.74-2.52h23.69v1.85q0 .33.05.67m2.13 5.43-23.74-2.52h22.12q.61 1.57 1.62 2.52"></path><rect width="53.2" height="30.29" x="-26.6" y="-15.14" fill="none" rx="0" ry="0" transform="translate(154.47 49.13)"></rect><path fill="#6b7280" d="m191.945 63.11 5.15-29.62h7.61l5.83 11.03h.33l1.91-11.03h9.35l-5.21 29.62h-7.61l-5.77-11.09h-.23l-1.96 11.09Zm2.91-27.1-23.75-2.52h24.14Zm-.95 5.37-23.75-2.52h24.19Zm-.96 5.38-23.74-2.52h24.19Zm-.95 5.37-23.74-2.52h24.19Zm-.95 5.38-23.74-2.52h24.19Zm-.95 5.43-23.75-2.52h24.2Z"></path><rect width="55.78" height="29.62" x="-27.89" y="-14.81" fill="none" rx="0" ry="0" transform="translate(194.74 48.8)"></rect><path fill="#6b7280" d="m235.005 63.11 5.15-29.62h9.47l-1.63 9.07h.28l5.77-9.07h10.25l-9.41 14.5 4.42 15.12h-10.24l-2.64-9.69h-.33l-1.68 9.69Zm2.91-27.1-23.74-2.52h24.13Zm-.95 5.37-23.74-2.52h24.19Zm-.95 5.38-23.75-2.52h24.2Zm-.95 5.37-23.75-2.52h24.19Zm-.96 5.38-23.74-2.52h24.19Zm-.95 5.43-23.74-2.52h24.19Z"></path><rect width="54.88" height="29.62" x="-27.44" y="-14.81" fill="none" rx="0" ry="0" transform="translate(237.35 48.8)"></rect><path fill="#6b7280" d="m285.235 63.11 6.16-35h16.8q3.64 0 5.74 1.12t2.97 3.05q.87 1.93.87 4.4 0 1.51-.31 3.58-.31 2.07-1.09 4.23-.79 2.16-2.21 4-1.43 1.85-3.62 2.97l3.7 11.65h-11.7l-2.58-10.42h-2.3l-1.79 10.42Zm3.98-32.48-23.69-2.52h24.14Zm-.95 5.38-23.69-2.52h24.13Zm10.92 8.06h2.46q1.62 0 2.74-.36 1.12-.37 1.4-1.99.28-1.4.37-2.13.08-.73.08-.78 0-1.24-1.03-1.49-1.04-.25-2.66-.25h-2.13Zm-11.88-2.69-23.68-2.52h24.13Zm-.95 5.38-23.69-2.52h24.14Zm-.89 5.37-23.75-2.52h24.19Zm-.96 5.38-23.74-2.52h24.19Zm-.95 5.43-23.74-2.52h24.19Z"></path><rect width="57.96" height="35" x="-28.98" y="-17.5" fill="none" rx="0" ry="0" transform="translate(289.3 46.11)"></rect><path fill="#6b7280" d="m329.755 63.11 5.15-29.62h19.72l-2.64 8.4h-9.12l-.68 3.8h8.4l-.95 5.38h-8.34l-.67 3.81h10.36l-1.46 8.23Zm2.91-27.1-23.74-2.52h24.14Zm-.95 5.37-23.74-2.52h24.19Zm-.95 5.38-23.74-2.52h24.19Zm-.95 5.37-23.75-2.52h24.2Zm-.95 5.38-23.75-2.52h24.19Zm-.96 5.43-23.74-2.52h24.19Z"></path><rect width="50.46" height="29.62" x="-25.23" y="-14.81" fill="none" rx="0" ry="0" transform="translate(329.9 48.8)"></rect><path fill="#6b7280" d="m366.495 63.11 6.77-29.62h12.16l.84 13.88h.22l5.66-13.88h12.15l-3.59 29.62h-9.63l1.51-12.04h-.28l-5.04 12.04h-7.39l-.84-12.04h-.28l-2.69 12.04Zm4.31-27.1-23.46-2.52h24.08Zm-1.23 5.37-23.52-2.52h24.08Zm-1.29 5.38-23.52-2.52h24.14Zm-1.12 5.37-23.69-2.52h24.25Zm-1.29 5.38-23.69-2.52h24.31Zm-1.23 5.43-23.74-2.52h24.3Z"></path><rect width="63.39" height="29.62" x="-31.7" y="-14.81" fill="none" rx="0" ry="0" transform="translate(373.1 48.8)"></rect><path fill="#6b7280" d="M428.595 63.78q-6.1 0-8.54-2.38-2.43-2.38-2.43-7.14 0-1.29.16-2.8.17-1.51.45-3.13.9-5.16 2.63-8.57 1.74-3.42 4.88-5.13 3.13-1.7 8.28-1.7 6.16 0 8.68 2.38 2.52 2.38 2.52 7.19 0 1.23-.16 2.72-.17 1.48-.45 3.11-.9 5.09-2.63 8.54-1.74 3.44-4.93 5.18-3.19 1.73-8.46 1.73m-6.72-28.45-17.19-1.84h19.49q-1.35.78-2.3 1.84m-3.53 5.77-21.16-2.24h22.12q-.23.56-.48 1.09-.25.54-.48 1.15m8.57 14.17h3.31q1.45 0 2.38-.34.92-.33 1.14-1.79l2.13-11.7h-3.41q-1.35 0-2.3.33-.95.34-1.18 1.74Zm-10.08-8.68-21.89-2.35h22.4Zm-.84 5.38-22.06-2.36h22.34q-.05.62-.14 1.21-.08.59-.14 1.15m.17 5.37-22.01-2.35h21.79q0 .62.08 1.2.08.59.14 1.15m2.41 5.15-19.55-2.07h18.09q.28.56.65 1.09.36.54.81.98"></path><rect width="51.29" height="30.85" x="-25.64" y="-15.43" fill="none" rx="0" ry="0" transform="translate(420.08 48.85)"></rect><path fill="#6b7280" d="m464.995 63.11-1.62-29.62h10.36V50.4h.22l6.5-16.91h10.13l-11.98 29.62Zm-3.3-27.1-23.75-2.52h23.58Zm.28 5.37-23.69-2.52h23.58Zm.28 5.38-23.63-2.52h23.46Zm.28 5.37-23.58-2.52h23.41Zm.28 5.38-23.58-2.52h23.47Zm.33 5.43-23.57-2.52h23.41Z"></path><rect width="52.64" height="29.62" x="-26.32" y="-14.81" fill="none" rx="0" ry="0" transform="translate(464.76 48.8)"></rect><path fill="#6b7280" d="m497.705 63.11 12.43-29.62h13.89l2.18 29.62h-9.8l-.22-4.54h-7.06l-1.74 4.54Zm9.57-27.22-22.85-2.4h23.86Zm-2.24 5.44-22.9-2.47h23.91Zm7.06 9.24h4.09v-8.52h-.79Zm-9.35-3.87-22.91-2.46h23.97Zm-2.24 5.38-22.96-2.47h23.96Zm-2.3 5.37-22.96-2.46h24.02Zm-2.3 5.44-22.96-2.47h24.03Z"></path><rect width="53.26" height="29.62" x="-26.63" y="-14.81" fill="none" rx="0" ry="0" transform="translate(500.07 48.8)"></rect><path fill="#6b7280" d="m540.825 63.11 5.15-29.62h9.85l-3.75 21.39h8.4l-1.45 8.23Zm2.91-27.1-23.75-2.52h24.14Zm-.95 5.37-23.75-2.52h24.19Zm-.96 5.38-23.74-2.52h24.19Zm-.95 5.37-23.74-2.52h24.19Zm-.95 5.38-23.74-2.52h24.19Zm-.95 5.43-23.75-2.52h24.2Z"></path><rect width="45.25" height="29.62" x="-22.63" y="-14.81" fill="none" rx="0" ry="0" transform="translate(538.35 48.8)"></rect><path fill="#fff" d="m29.385 58.79 1.28-7.04h2.6q.83 0 1.43-.19.59-.2.77-1.13l2.11-12.1h-3.43l1.27-7.04h11.79l-3.56 20.24q-.62 3.57-2.62 5.42-2 1.84-5.12 1.84Zm4.32-25.52-18.62-1.98h18.97Zm-.8 4.23-18.65-1.98h18.96Zm2.73 4.22-18.65-1.98h19Zm-.75 4.23-18.65-1.98h19.01Zm-.74 4.22-18.66-1.98h19.01Zm-5.33 4.22-18.65-1.98h19Zm-.75 4.27-18.65-1.98h19.01Z" paint-order="stroke"></path><rect width="37.79" height="27.5" x="-18.89" y="-13.75" fill="none" rx="0" ry="0" transform="translate(28.81 45.54)"></rect><path fill="#fff" d="m55.485 58.79 4.84-27.5h13.2q2.86 0 4.51.88t2.33 2.4q.68 1.52.68 3.46 0 1.18-.24 2.81-.24 1.63-.86 3.32-.62 1.7-1.74 3.15t-2.84 2.33l2.91 9.15h-9.2l-2.02-8.18h-1.81l-1.4 8.18Zm3.12-25.52-18.61-1.98h18.96Zm-.75 4.23-18.61-1.98h18.96Zm8.58 6.33h1.94q1.27 0 2.15-.28.88-.29 1.1-1.56.22-1.1.29-1.68.07-.57.07-.61 0-.97-.82-1.17-.81-.2-2.09-.2h-1.67Zm-9.33-2.11-18.61-1.98h18.97Zm-.74 4.23-18.62-1.98h18.97Zm-.71 4.22-18.65-1.98h19Zm-.75 4.22-18.65-1.98h19.01Zm-.74 4.27-18.66-1.98h19.01Z" paint-order="stroke"></path><rect width="45.54" height="27.5" x="-22.77" y="-13.75" fill="none" rx="0" ry="0" transform="translate(58.77 45.54)"></rect></svg></svg>